<svg width="19" height="17" viewBox="0 0 19 17" fill="none" xmlns="http://www.w3.org/2000/svg">
<path d="M1.40032 9.50417L1.46506 9.40247L5.36716 3.29813C5.42416 3.20873 5.55826 3.218 5.60139 3.31506C6.25329 4.77607 6.81579 6.59303 6.55226 7.7242C6.43976 8.1896 6.13156 8.81993 5.78479 9.40247C5.74009 9.48723 5.69079 9.57047 5.63839 9.6506C5.61372 9.68757 5.57212 9.70917 5.52742 9.70917H1.51436C1.40649 9.70917 1.34332 9.59203 1.40032 9.50417Z" fill="#FFFFFC"/>
<path d="M18.7922 10.6383V11.6046C18.7922 11.66 18.7583 11.7094 18.709 11.7309C18.4069 11.8604 17.3728 12.3351 16.9428 12.933C15.8456 14.4602 15.0072 16.644 13.1332 16.644H5.31516C2.54423 16.644 0.298828 14.3909 0.298828 11.6107V11.5213C0.298828 11.4474 0.358928 11.3873 0.432928 11.3873H4.79116C4.87746 11.3873 4.94066 11.4674 4.93296 11.5522C4.90213 11.8357 4.95453 12.1255 5.08859 12.389C5.34753 12.9145 5.88383 13.2428 6.46329 13.2428H8.62083V11.5583H6.48793C6.37853 11.5583 6.31379 11.432 6.37699 11.3426C6.40009 11.3071 6.4263 11.2701 6.45403 11.2285C6.65593 10.9419 6.9441 10.4965 7.23076 9.98946C7.42646 9.64736 7.61603 9.2821 7.76859 8.91533C7.79943 8.84907 7.8241 8.78127 7.84873 8.71497C7.89036 8.59787 7.93349 8.48843 7.96433 8.37903C7.99513 8.28657 8.0198 8.18947 8.04446 8.09853C8.1169 7.78723 8.14773 7.45743 8.14773 7.1153C8.14773 6.98123 8.14156 6.841 8.12923 6.7069C8.12306 6.5605 8.10456 6.4141 8.08606 6.2677C8.07373 6.13823 8.05063 6.01033 8.02596 5.87627C7.99513 5.68053 7.95199 5.48637 7.90266 5.29063L7.88573 5.21667C7.84873 5.0826 7.81793 4.95467 7.77476 4.8206C7.65303 4.39987 7.51276 3.98993 7.36483 3.6062C7.31089 3.45363 7.24923 3.30723 7.18759 3.16083C7.09666 2.94043 7.0042 2.7401 6.91946 2.55053C6.8763 2.46423 6.83929 2.38563 6.80233 2.3055C6.76073 2.21457 6.71756 2.12367 6.67443 2.03733C6.64359 1.97107 6.60813 1.90943 6.5835 1.8478L6.31996 1.3608C6.28296 1.29453 6.34463 1.21593 6.41703 1.23597L8.06603 1.6829H8.07066C8.07373 1.6829 8.07683 1.68443 8.07683 1.68443L8.29413 1.74453L8.533 1.81233L8.62083 1.837V0.856867C8.62083 0.383733 8.99996 0 9.46846 0C9.7027 0 9.91536 0.095533 10.0679 0.2512C10.2205 0.406866 10.3161 0.619533 10.3161 0.856867V2.31167L10.4917 2.36097C10.5056 2.3656 10.5195 2.37177 10.5318 2.381C10.575 2.41337 10.6366 2.46117 10.7152 2.5197C10.7769 2.56903 10.8431 2.62913 10.9233 2.69077C11.082 2.8187 11.2715 2.9836 11.4796 3.17313C11.5351 3.22093 11.589 3.27023 11.6383 3.31957C11.9065 3.5692 12.207 3.86203 12.4937 4.18567C12.5738 4.27657 12.6524 4.36903 12.7325 4.46613C12.8127 4.56477 12.8974 4.66187 12.9714 4.75897C13.0685 4.8884 13.1733 5.02247 13.2642 5.16273C13.3074 5.229 13.3567 5.2968 13.3983 5.36307C13.5154 5.5403 13.6187 5.7237 13.7173 5.90707C13.7589 5.99183 13.8021 6.0843 13.839 6.17523C13.9485 6.42027 14.0348 6.66993 14.0902 6.9196C14.1072 6.97353 14.1195 7.0321 14.1257 7.0845V7.0968C14.1442 7.1708 14.1503 7.2494 14.1565 7.32953C14.1812 7.58533 14.1688 7.84117 14.1134 8.09853C14.0902 8.20797 14.0594 8.3112 14.0224 8.42063C13.9854 8.52543 13.9485 8.63483 13.9007 8.7381C13.8082 8.9523 13.6988 9.16653 13.5693 9.36687C13.5277 9.44083 13.4784 9.51943 13.4291 9.5934C13.3752 9.672 13.3197 9.746 13.2704 9.81843C13.2026 9.9109 13.1301 10.008 13.0562 10.0943C12.9899 10.1852 12.9221 10.2761 12.8481 10.3563C12.7449 10.478 12.6462 10.5936 12.543 10.7046C12.4813 10.777 12.4151 10.851 12.3472 10.9172C12.281 10.9912 12.2132 11.0575 12.1515 11.1191C12.0483 11.2224 11.962 11.3025 11.8895 11.3688L11.72 11.5244C11.6954 11.546 11.663 11.5583 11.6291 11.5583H10.3161V13.2428H11.9681C12.338 13.2428 12.6894 13.1118 12.9729 12.8714C13.07 12.7866 13.4938 12.4198 13.9947 11.8666C14.0116 11.8481 14.0332 11.8342 14.0579 11.828L18.6211 10.5088C18.7059 10.4842 18.7922 10.5489 18.7922 10.6383Z" fill="#FFFFFC"/>
</svg>
