<svg xmlns="http://www.w3.org/2000/svg" viewBox="0 0 133.84 140.11"><defs><style>.cls-1{fill:#f3acc6;}.cls-1,.cls-2,.cls-3,.cls-4,.cls-5{stroke:#231815;stroke-width:2px;}.cls-1,.cls-14,.cls-2,.cls-3,.cls-4,.cls-5{stroke-miterlimit:10;}.cls-2{fill:#c8b2d5;}.cls-3{fill:#a2cbec;}.cls-4{fill:#f7c5d9;}.cls-5{fill:#f3c699;}.cls-6{fill:#f7f08b;}.cls-7{fill:#211919;}.cls-8{fill:#e05d8f;}.cls-9{fill:#a3334f;}.cls-10{fill:#93c0df;}.cls-11{fill:#6faed6;}.cls-12{fill:#f1ec8d;}.cls-13{fill:#da3c42;}.cls-14{fill:#1a1a1a;stroke:#211919;}.cls-15{fill:#edaa6a;}</style></defs><g id="레이어_2" data-name="레이어 2"><g id="레이어_1-2" data-name="레이어 1"><path class="cls-1" d="M29.35,46a59,59,0,0,0,7.52-.24c2.23-.27,4.41-.77,6.6-1.22a28.6,28.6,0,0,1,5.6-.77c2.93,0,4.37,1.17,5,4a25.85,25.85,0,0,1,.61,5.33,90.92,90.92,0,0,0,1.24,12.65,29.22,29.22,0,0,1,.43,4.58,5.22,5.22,0,0,1-3.59,5.37,39.11,39.11,0,0,1-4.55,1.51,37.69,37.69,0,0,0-12,5.88,51.5,51.5,0,0,1-7.36,4.64,14.54,14.54,0,0,1-7.68,1.6A17.44,17.44,0,0,1,14,87.06,25.1,25.1,0,0,1,1.34,69a17.4,17.4,0,0,1,1-10.15A16.11,16.11,0,0,1,6.58,53a28.61,28.61,0,0,1,15.07-6.8A49.49,49.49,0,0,1,29.35,46Z"/><path class="cls-2" d="M47.21,139.09c-3.42.06-5.75-1.56-7.66-3.84-3.13-3.73-4.8-8.17-5.94-12.84a33.21,33.21,0,0,1-1-7.29,21.21,21.21,0,0,1,3-12,19.91,19.91,0,0,1,5.08-5.31c4-3,7.87-6.12,11.62-9.43a12.71,12.71,0,0,1,3.36-2.21,5.63,5.63,0,0,1,4.7.16,25.71,25.71,0,0,1,4,2.37A53,53,0,0,0,77.14,95,46.6,46.6,0,0,1,86,99c2.56,1.58,4.44,3.66,4.91,6.76a13.72,13.72,0,0,1-1,7A22,22,0,0,1,79.52,124.4c-3.1,1.72-6.34,3.13-9.56,4.58-3.75,1.69-7.33,3.7-10.92,5.69a41,41,0,0,1-8.92,4A8.41,8.41,0,0,1,47.21,139.09Z"/><path class="cls-3" d="M87.17,92.93a60.39,60.39,0,0,1-7-4.31,12.39,12.39,0,0,1-2.81-2.88,8.13,8.13,0,0,1-.9-6.4c.51-2.63,1.37-5.17,2-7.76.86-3.5,1.65-7,2.51-10.5a20.06,20.06,0,0,1,1.95-5.24c1.45-2.54,3.27-3.21,6-2.24a44.31,44.31,0,0,1,5.44,2.45,49.17,49.17,0,0,0,9.89,4.11,64,64,0,0,0,8.69,1.42,74.26,74.26,0,0,1,8.11,1.26,13.7,13.7,0,0,1,10.49,9.57,24.82,24.82,0,0,1-.28,16.64,23.61,23.61,0,0,1-6.63,10,15.78,15.78,0,0,1-13.56,3.82,39.89,39.89,0,0,1-9.43-2.89A152.07,152.07,0,0,1,87.17,92.93Z"/><path class="cls-4" d="M126.82,41.44a17.28,17.28,0,0,1-4.24,6.71,7.93,7.93,0,0,1-7.78,1.79,62.61,62.61,0,0,1-8.15-3.09c-4.33-1.8-8.75-2.5-13.36-1.08-2.4.74-4.76,1.59-7.18,2.26a16.88,16.88,0,0,1-4.73.76,11,11,0,0,1-8.44-4.17,9.88,9.88,0,0,1-2.61-7.24,10.46,10.46,0,0,1,1.8-4.9,30.85,30.85,0,0,1,5-5.83c3.54-3.38,7-6.83,10.5-10.27a13.66,13.66,0,0,1,5.73-3.73,14.28,14.28,0,0,1,5.6-.27c2.7.3,5.36.9,8,1.4,2.3.43,4.61.77,6.87,1.34a24.82,24.82,0,0,1,7.56,2.94A13.93,13.93,0,0,1,127,25.25a24,24,0,0,1,.55,14A14.81,14.81,0,0,1,126.82,41.44Z"/><path class="cls-5" d="M60.59,14.38a24.18,24.18,0,0,1,1.65,15.7A12.24,12.24,0,0,1,59.14,36a10.92,10.92,0,0,1-7,3.06,16.32,16.32,0,0,1-12.76-4c-1.46-1.28-2.91-2.57-4.32-3.92A18.12,18.12,0,0,0,27,26.8c-2.37-.63-4.75-1.27-7.1-2a15.59,15.59,0,0,1-8.11-5.66,13.88,13.88,0,0,1-2.82-6.32c-.46-3.18.87-5.28,4-6A39.67,39.67,0,0,1,18.82,6c2.86-.21,5.75-.26,8.62-.42a25.92,25.92,0,0,0,8.61-2.12c1.61-.68,3.21-1.35,4.85-1.95a9.45,9.45,0,0,1,6.32,0,19.38,19.38,0,0,1,7.51,4.65A27.25,27.25,0,0,1,60.59,14.38Z"/><path class="cls-6" d="M33.71,15.63A5.91,5.91,0,0,0,33,20a6,6,0,0,0,2.64,3.35,10.28,10.28,0,0,0,9.62.86A8.21,8.21,0,0,0,50,20.06c.7-1.58,1.11-4.1,0-5.88C47.24,10,36.51,10.92,33.71,15.63Z"/><path class="cls-7" d="M36,22.83a.83.83,0,0,0-.28-.09.48.48,0,0,0-.31,0,.77.77,0,0,0-.19.14h0a.47.47,0,0,0,0,.67l.23.18a3.25,3.25,0,0,0,.77.41.5.5,0,0,0,.7-.24C37,23.71,36.28,23,36,22.83Z"/><path class="cls-7" d="M50.45,13.85c-1.22-1.91-4-3-7.5-3-.57,0-7.48,0-9.76,4.44a7.66,7.66,0,0,0-.65,4.74,6.54,6.54,0,0,0,1.07,2.32,1.11,1.11,0,0,0,.48.37.65.65,0,0,0,.61,0,.63.63,0,0,0,.12-.72,6,6,0,0,1-.69-1,5.4,5.4,0,0,1-.58-1.28,5.27,5.27,0,0,1,.68-3.87A6.85,6.85,0,0,1,37,13.51,13.66,13.66,0,0,1,43,12.1c2,0,5,.17,6.45,2.4s.37,4.8.18,5.28a7.59,7.59,0,0,1-4.37,4,10.47,10.47,0,0,1-7.63,0,.64.64,0,0,0-.46.37.6.6,0,0,0,.17.65,12.79,12.79,0,0,0,4,.63,11.43,11.43,0,0,0,4.18-.72,13.53,13.53,0,0,0,1.24-.57,8,8,0,0,0,3.82-3.87C51.29,18.58,51.73,15.85,50.45,13.85Z"/><path class="cls-8" d="M38.76,11a9.35,9.35,0,0,0-3.5,2.34,5.07,5.07,0,0,0-1.7,3.27A3.58,3.58,0,0,0,35,19.68c1.15.65,2.14-.25,3.21.59a13.58,13.58,0,0,0,1.28,1.22c.58.44.87.66,1.16.57.59-.17.28-1.36,1.16-2a1.52,1.52,0,0,1,1.31-.27c.36.13.4.39.76.61a1.87,1.87,0,0,0,1.58.08c1.16-.49.7-2.19,1.9-2.87.75-.41,1.22.07,1.84-.41.9-.7.69-2.31.66-2.49a5.05,5.05,0,0,0-2.28-3.19C44,9,39.22,10.77,38.76,11Z"/><path class="cls-7" d="M45.82,21l-.14.07a2.49,2.49,0,0,1-2.12-.12,2.52,2.52,0,0,1-.49-.42c-.09-.11-.11-.12-.16-.14a.94.94,0,0,0-.76.18c-.31.23-.22.48-.48.92a1.87,1.87,0,0,1-.86.82A2,2,0,0,1,39.12,22a4.77,4.77,0,0,1-.62-.53l-.35-.37a2.05,2.05,0,0,0-.33-.33,1.18,1.18,0,0,0-.31-.19,1.8,1.8,0,0,0-.93,0,3.23,3.23,0,0,1-1.95-.58A3.94,3.94,0,0,1,33,16.55a5.44,5.44,0,0,1,1.86-3.66,9.82,9.82,0,0,1,3.72-2.5c.55-.22,5.55-2,9.37.65a5.6,5.6,0,0,1,2.54,3.59c0,.36.25,2.18-.89,3.06a1.8,1.8,0,0,1-1.29.35,1.08,1.08,0,0,0-.62.11c-.38.21-.51.57-.69,1.15A2.48,2.48,0,0,1,45.82,21ZM41.73,19.4a2.08,2.08,0,0,1,1.58-.17,1.53,1.53,0,0,1,.65.47,1,1,0,0,0,.22.19,1.3,1.3,0,0,0,1,.05c.31-.14.42-.45.59-1a2.85,2.85,0,0,1,1.25-1.84,2.15,2.15,0,0,1,1.25-.26c.28,0,.37,0,.51-.1a2.53,2.53,0,0,0,.43-1.94,4.24,4.24,0,0,0-1.66-2.53c-3.25-2.59-8.15-1-8.39-.9a8.62,8.62,0,0,0-3.65,2.36,4.54,4.54,0,0,0-1.39,2.85,3,3,0,0,0,1.13,2.57,1.94,1.94,0,0,0,1.2.16,2.68,2.68,0,0,1,2.08.49,3.1,3.1,0,0,1,.48.48c.09.1.19.21.31.32a2.85,2.85,0,0,0,.48.41,2.12,2.12,0,0,0,.48.24.75.75,0,0,0,.19-.09c.55-.36.34-1.15.93-1.58Z"/><path class="cls-9" d="M41.05,13.5c-1,.2-2.13.42-2.47,1.27a1.27,1.27,0,0,0,0,1.09c.42.6,1.57.38,2.91.14s2.26-.42,2.44-1a1.43,1.43,0,0,0-.59-1.35C42.78,13.16,42,13.31,41.05,13.5Z"/><path class="cls-7" d="M43.81,16.1a8.56,8.56,0,0,1-2.16.57c-1.58.29-2.94.54-3.6-.41a1.9,1.9,0,0,1-.11-1.74c.48-1.2,1.86-1.47,3-1.69h0c1.05-.21,2-.41,2.88.25a2.06,2.06,0,0,1,.83,2.09A1.52,1.52,0,0,1,43.81,16.1Zm-4.14-1.5a.9.9,0,0,0-.45.43.71.71,0,0,0,0,.44c.16.23,1.55,0,2.22-.15s1.84-.34,1.9-.55a.87.87,0,0,0-.36-.61c-.32-.25-.83-.17-1.76,0h0A6.25,6.25,0,0,0,39.67,14.6Z"/><path class="cls-10" d="M26.07,59.2c-.37.25-.57.92-.91,3.9a14.92,14.92,0,0,0-.22,2.69,1.89,1.89,0,0,0,.09.34c-2.74,1.54-4.17,2.4-5,2-1.06-.53-.54-3.29.08-5.45.39-1.37,1.66-1.44,4.46-2.76Z"/><path class="cls-10" d="M37.82,59.44s0,.06,0,.09c-.1.34-.78.64-5.18,2.69a1.24,1.24,0,0,0,0-.16c-.11-.46-2.05-1.49-3.61-2.1-1.3-.51-2.11-1.09-2.73-.86,4.33-2.26,4.92-3.5,6.6-2.78C34.77,57.15,37.9,58.13,37.82,59.44Z"/><path class="cls-11" d="M32.63,62.22l-2.49,1.16A41.83,41.83,0,0,0,25.27,66l-.24.13a1.89,1.89,0,0,1-.09-.34,14.92,14.92,0,0,1,.22-2.69c.34-3,.54-3.65.91-3.9h0l.16-.09h0c.62-.23,1.43.35,2.73.86,1.56.61,3.5,1.64,3.61,2.1A1.24,1.24,0,0,1,32.63,62.22Z"/><path class="cls-7" d="M26.43,59.86l-.77-1.29a1.43,1.43,0,0,1,.3-.16l.64,1.36-.12.06Z"/><path class="cls-10" d="M34.21,74.93c-.78.37-4.33-3.73-5.6-4.94-1.43-1.38-3.09-2.41-3.58-3.86l.24-.13a41.83,41.83,0,0,1,4.87-2.62l2.49-1.16a27.85,27.85,0,0,1,1.06,6C33.8,69.44,34.81,74.64,34.21,74.93Z"/><path class="cls-11" d="M37.81,59.53c-.27,1.58-.17,4.18-.55,7-.79,5.8-1.29,7.91-2.83,8.67-1,.47-2.13.37-4.07-.55a74,74,0,0,1-10.3-6.47c.8.39,2.23-.47,5-2,.49,1.45,2.15,2.48,3.58,3.86,1.27,1.21,4.82,5.31,5.6,4.94.6-.29-.41-5.49-.52-6.68a27.85,27.85,0,0,0-1.06-6C37,60.17,37.71,59.87,37.81,59.53Z"/><path class="cls-7" d="M19.06,64.61a.83.83,0,0,0,.52.49,1.24,1.24,0,0,0,.6.05,2.08,2.08,0,0,0,.3-.72,2.51,2.51,0,0,0,0-.37.74.74,0,0,0-.49-.69h0a.73.73,0,0,0-1,.54A.07.07,0,0,0,19,64,1.47,1.47,0,0,0,19.06,64.61Z"/><path class="cls-7" d="M34.17,56.05l-1-.42c-1.48-.64-2.39-.07-4.05,1-.77.48-1.71,1.06-3,1.76h0l-.12.07-.09,0-.14.09c-.42.22-.89.45-1.43.7-.79.38-1,.45-1.92.85-2,.89-2.36,1.21-2.47,1.61,0,0-.15.61.12.82a.61.61,0,0,0,.41.09A1.1,1.1,0,0,0,21,62.4a14.25,14.25,0,0,1,1.93-.92,15,15,0,0,1,1.8-.78v0l0,.14V61a.88.88,0,0,0,0,.16v.07c0,.16,0,.33-.08.51v.06l0,.21v.09l0,.22v.08l0,.24v.08c0,.11,0,.22,0,.34l0,.3,0,.19,0,.11,0,.18v.09l0,.16v.46a1.23,1.23,0,0,0,0,.19v1l-.07,0c-2.67,1.78-3.48,1.91-3.71,1.67a2.61,2.61,0,0,1-.32-.9c-.11-.44-.12-.69-.31-.79a.52.52,0,0,0-.44,0,1,1,0,0,0-.43.43c-.17.32-.18,1.19.74,2.5a9.68,9.68,0,0,0,3.25,2.78c3.88,2.38,4,2,7.16,3.76a7.79,7.79,0,0,0,3.17.9,3.52,3.52,0,0,0,1.55-.35c1.93-1,2.45-3.42,3.24-9.25.21-1.51.28-3,.34-4.22a24,24,0,0,1,.21-2.68h0l0-.2C38.67,57.85,36.38,56.94,34.17,56.05Zm-8.44,8.78v-.59l0-.16v0c0-.13,0-.25,0-.38l.06-.47c0-.1,0-.21,0-.34v0l0-.2h0l0-.17v-.07l0-.16v-.09l0-.15v-.11l0-.14,0-.12,0-.14,0-.12,0-.14,0-.12a.59.59,0,0,1,0-.13l0-.12a.5.5,0,0,1,0-.12s0-.07,0-.11,0-.07,0-.11a.36.36,0,0,0,0-.1l0-.1a.29.29,0,0,1,0-.09s0-.06,0-.08a.31.31,0,0,0,0-.08.19.19,0,0,0,0-.07l0-.06,0-.05h.08l.05-.05.07,0h0l.12,0h.05l.09,0,.07,0,.09,0,.07,0,.09,0,.07,0,.1,0,.06,0,.14.07c.31.14.66.3,1.05.45l.37.15.09,0,.29.12.07,0,.33.16.08,0,.25.13.08,0,.3.15h0l.25.13.07,0,.21.12,0,0,.21.13h0l-.11.06-.16.07-.58.27-.06,0-.65.3a35.52,35.52,0,0,0-4,2.1l-.09.06Zm5,9.1A65,65,0,0,1,22,68.6l.07,0,.19-.08.1,0,.18-.09.12-.06.18-.09.13-.06.19-.11L23.3,68l.2-.11.14-.08.22-.12.13-.07.25-.14.12-.07.26-.15v0l.08,0v0l.18.27,0,0,.18.23,0,.06.23.25.05.06.21.22,0,0,.26.24.06.06.25.22,0,0,.28.25.07.06.27.23c.4.34.8.69,1.18,1s.7.71,1.18,1.22l.45.47.15.16.28.28.16.17.24.24.16.16.22.23a1.85,1.85,0,0,1,.14.14l.27.26.08.07.3.29.12.11.13.12A8.84,8.84,0,0,1,30.69,73.93Zm-.33-3.22c-.49-.52-.92-1-1.23-1.26s-.83-.76-1.24-1.11l-.24-.21-.06-.06-.25-.21,0,0-.21-.19-.05,0-.22-.21,0,0-.18-.18,0,0-.18-.2,0,0-.16-.2v0c-.06-.07-.1-.14-.15-.21l0,0,.06,0,.2-.12.08-.05.24-.15a33.89,33.89,0,0,1,3.87-2l.61-.29.14-.07.57-.26h0l.31-.15h0l0,0,0,.12,0,.1,0,.11,0,.11,0,.12,0,.12s0,.07,0,.11a1.69,1.69,0,0,1,0,.24l0,.1,0,.16s0,.08,0,.12l0,.16,0,.13,0,.17a.78.78,0,0,0,0,.14l0,.18a.78.78,0,0,1,0,.16l0,.19,0,.17,0,.21a1.1,1.1,0,0,0,0,.18l0,.23c0,.06,0,.13,0,.19l0,.26a1.37,1.37,0,0,1,0,.19c0,.11,0,.22,0,.33s0,.1,0,.16,0,.35,0,.53.12.86.22,1.55.27,1.74.38,2.71a.53.53,0,0,1-.89.45C31.84,72.26,30.93,71.31,30.36,70.71Zm6.47-8.41c-.06,1.24-.12,2.64-.32,4.08-.49,3.58-.86,5.69-1.39,6.89v0l0-.3v-.06a2.45,2.45,0,0,0,0-.27v-.1c0-.11,0-.22,0-.34h0c0-.13,0-.26,0-.39l0-.11c0-.11,0-.22,0-.33l0-.1-.06-.45v-.1l-.06-.39,0-.14c0-.17,0-.34-.08-.52-.1-.64-.18-1.19-.21-1.46s0-.39,0-.57l0-.28c0-.08,0-.17,0-.24s0-.2,0-.3,0-.13,0-.19l0-.26,0-.19c0-.09,0-.16,0-.24l0-.18,0-.22c0-.06,0-.11,0-.16a1.18,1.18,0,0,0,0-.2.78.78,0,0,0,0-.16l0-.18,0-.15,0-.17,0-.14,0-.15,0-.13,0-.15,0-.12,0-.15,0-.11,0-.14,0-.1,0-.14,0-.09,0-.13,0-.1,0-.16v0l.84-.39.26-.12.1-.05.2-.09.13-.07.25-.11.09,0,.21-.1.08,0,.23-.11.05,0,.2-.1.08,0,.16-.07.07,0,.17-.09.08,0,.11-.05.07,0C36.87,61.44,36.85,61.86,36.83,62.3Zm.09-3,0,0-.1,0-.06,0-.09.05-.07,0-.11,0-.08,0-.13.07-.09,0-.16.08-.08,0-.26.12-.09,0-.2.1-.13.06-.19.09-.15.07-.2.1-.16.07-.23.11-.15.07-.27.13-.15.07h0l-.79.37h0l-.15-.14,0,0L32.54,61l0,0-.2-.14h0l-.21-.14-.05,0-.22-.14,0,0-.21-.12,0,0-.24-.12-.05,0L31,60h0l-.23-.11,0,0-.23-.11,0,0-.21-.09h0L30,59.58l0,0-.19-.08,0,0-.16-.06h0l-.16-.07h0l-.13-.05h0a.54.54,0,0,1-.07-.95l.71-.44c1.67-1,2-1.16,2.67-.86l1.06.44a22.17,22.17,0,0,1,2.58,1.16,2.42,2.42,0,0,1,.83.67Z"/><path class="cls-12" d="M94.43,28.39c-.59.11,0,2.41-1.11,3.28-1.27,1-3.82-.64-4.13-.11s2.34,1.81,2.59,4.14c.16,1.51-.79,2.37-.35,2.86s2.17-.44,4.64-1.15c1.09-.32,5.36-1.54,9.35-.13,2.44.87,4,2.44,4.37,2s-1.1-1.49-1.08-3.29c0-2.51,2.85-4.33,2.54-4.7s-2.18,1.5-3.45.91c-1.45-.67-1.09-4-1.75-4.05s-.88,2.68-2.21,2.94c-.72.14-1.41-.53-1.71-.82-2-1.93-1.47-5.25-1.88-5.26s-.66,1.54-1.11,3.36c-.39,1.58-.46,2.14-.93,2.35-.8.35-2-.63-2.28-.85C95,29.11,94.76,28.33,94.43,28.39Z"/><path class="cls-7" d="M93.79,38.14a.47.47,0,0,0,.1.31.51.51,0,0,0,.28.17.45.45,0,0,0,.25,0,.48.48,0,0,0,.31-.24.9.9,0,0,0,.1-.57.88.88,0,0,0-.21-.42.53.53,0,0,0-.33,0,.52.52,0,0,0-.34.24A.84.84,0,0,0,93.79,38.14Z"/><path class="cls-7" d="M111.72,31c-.42-.51-1-.19-1.64.16s-1.51.82-2,.58-.77-1.43-.91-2.28-.3-1.76-1-1.82-1,.64-1.29,1.37-.62,1.49-1.08,1.57-1-.45-1.18-.66a6.25,6.25,0,0,1-1.48-4c-.07-.75-.14-1.4-.79-1.43s-1,.71-1.72,3.83c-.06.2-.1.39-.14.56A3.59,3.59,0,0,1,98,30.21s-.5.17-1.66-.77a4.43,4.43,0,0,1-.89-1c-.25-.34-.56-.76-1.1-.66h0c-.71.12-.77.87-.83,1.59s-.12,1.47-.55,1.8-1.57.11-2.35-.11-1.56-.44-1.92.18.18,1.13.75,1.69a5,5,0,0,1,1.76,2.82,3.48,3.48,0,0,1-.26,1.58c-.44,1.26,0,1.54.06,1.61.51.61,2,0,2.12,0a.67.67,0,0,0,.27-.38.58.58,0,0,0-.18-.63.47.47,0,0,0-.33-.05,4.7,4.7,0,0,1-.93.25,2.64,2.64,0,0,1,.13-.4,4.63,4.63,0,0,0,.32-2.11,5.63,5.63,0,0,0-1.9-3.34c1,.28,2.28.57,3.21-.16a3.56,3.56,0,0,0,1-2.64,5.46,5.46,0,0,0,.87.88c1.17.95,2.14,1.26,2.89.93s.84-.93,1.14-2.19c0-.18.09-.36.14-.57.1-.4.2-.84.31-1.26a6.26,6.26,0,0,0,1.67,3.45,2.71,2.71,0,0,0,2.25,1c1.09-.21,1.59-1.41,2-2.29l0,.18c.19,1.12.45,2.65,1.59,3.18a2.48,2.48,0,0,0,1.89,0A5.52,5.52,0,0,0,108.1,36a4.74,4.74,0,0,0,.62,2.25l0,0a20.4,20.4,0,0,0-3.07-1.55,14.86,14.86,0,0,0-5.55-.62,11,11,0,0,0-4.17.74,4.34,4.34,0,0,0-.44.19.63.63,0,0,0-.15.54.62.62,0,0,0,.48.48l.7-.2s.69-.17,1.44-.27c5.15-.68,7.28.28,7.28.28a29.43,29.43,0,0,1,2.85,1.44c.86.52,1.5.92,2,.58l.15-.13c.46-.48.12-1.06-.18-1.58a4.08,4.08,0,0,1-.73-2.12c0-1.41,1.1-2.62,1.82-3.42C111.68,32,112.16,31.48,111.72,31Z"/><path class="cls-7" d="M88,29.12s-.64,0-.84.33a1.05,1.05,0,0,0,.75,1.35,1,1,0,0,0,1.18-.75C89.15,29.55,88.53,29.15,88,29.12Z"/><path class="cls-7" d="M88.78,30.7a1.19,1.19,0,0,1-.87.18,1.16,1.16,0,0,1-.79-.67.9.9,0,0,1,0-.8C87.33,29,88,29,88,29h0a1.45,1.45,0,0,1,1,.47.77.77,0,0,1,.21.55.86.86,0,0,1-.37.61ZM87.4,29.34a.54.54,0,0,0-.15.15.75.75,0,0,0,0,.65,1,1,0,0,0,.67.58,1,1,0,0,0,.78-.2A.75.75,0,0,0,89,30a.6.6,0,0,0-.17-.43A1.3,1.3,0,0,0,88,29.2h0A1.18,1.18,0,0,0,87.4,29.34Z"/><path class="cls-7" d="M94,25.75c-.1,0-.94.22-1,.8a1,1,0,0,0,.56.84,1,1,0,0,0,1.18-.14,1,1,0,0,0,.07-1.41A1,1,0,0,0,94,25.75Z"/><path class="cls-7" d="M94.64,27.42a1.18,1.18,0,0,1-1.15,0,1,1,0,0,1-.62-.93c.06-.62.9-.83,1.06-.87h0a1.07,1.07,0,0,1,.9.11.88.88,0,0,1,.28.65,1.19,1.19,0,0,1-.35.89Zm-1.27-1.33a.61.61,0,0,0-.32.47.86.86,0,0,0,.51.76.93.93,0,0,0,1.38-.88.72.72,0,0,0-.22-.53.88.88,0,0,0-.75-.07h0A1.85,1.85,0,0,0,93.37,26.09Z"/><path class="cls-7" d="M99.89,21.51a1,1,0,0,0-.45.52,1.18,1.18,0,0,0,.57,1.1,1.23,1.23,0,0,0,1.34.13,1.07,1.07,0,0,0,.41-.73,1.24,1.24,0,0,0-1-1.25A1.21,1.21,0,0,0,99.89,21.51Z"/><path class="cls-7" d="M101.39,23.34A1.33,1.33,0,0,1,100,23.2a1.23,1.23,0,0,1-.6-1.19,1,1,0,0,1,.48-.57h0a1.34,1.34,0,0,1,.9-.24,1.32,1.32,0,0,1,1.1,1.34,1.08,1.08,0,0,1-.44.8Zm-1.5-1.83,0,.07a.88.88,0,0,0-.41.47c-.11.43.3.85.53,1a1.17,1.17,0,0,0,1.24.14h0a.93.93,0,0,0,.36-.67,1.14,1.14,0,0,0-1-1.15,1.07,1.07,0,0,0-.78.21h0Z"/><path class="cls-7" d="M107.24,25.42a1.16,1.16,0,0,0-1.45,0,1.1,1.1,0,0,0-.18,1,1.33,1.33,0,0,0,.76.84,1.12,1.12,0,0,0,1.28-.29A1.19,1.19,0,0,0,107.24,25.42Z"/><path class="cls-7" d="M107.5,27.21a1.36,1.36,0,0,1-1.16.09,1.37,1.37,0,0,1-.81-.9,1.19,1.19,0,0,1,.19-1.07,1.26,1.26,0,0,1,1.57,0h0a1.26,1.26,0,0,1,.43,1.63A1,1,0,0,1,107.5,27.21ZM106,25.36a.81.81,0,0,0-.1.09,1,1,0,0,0-.15.9,1.19,1.19,0,0,0,.7.79,1,1,0,0,0,1.18-.26,1.12,1.12,0,0,0-.39-1.4h0A1.17,1.17,0,0,0,106,25.36Z"/><path class="cls-7" d="M112.67,29.19a.86.86,0,0,0-.86.23.89.89,0,0,0,0,1.15.86.86,0,0,0,1,.3.84.84,0,0,0,.51-.75A.91.91,0,0,0,112.67,29.19Z"/><path class="cls-7" d="M113,30.87l-.15.08a1,1,0,0,1-1.11-.32,1,1,0,0,1,0-1.27.94.94,0,0,1,1-.25h0a1,1,0,0,1,.71,1A1,1,0,0,1,113,30.87Zm-1-1.5-.13.1a.83.83,0,0,0,0,1.05.82.82,0,0,0,.91.27.78.78,0,0,0,.46-.68.83.83,0,0,0-.59-.84h0A.82.82,0,0,0,112,29.37Z"/><path class="cls-13" d="M103,75.28c-1.41,1-3.49-2.57-6-1.94a5,5,0,0,0-3.3,4.87c.19,2.06,1.28,2.6,7.29,7.22,3,2.29,4.7,2.88,5.93,2.59.93-.21,1.34-1,3.58-5.68,2.45-5.15,2.76-5.89,2.63-7.18,0-.48-.37-3.85-3.06-5-2.15-.91-4.27-.55-5.35,1C103.94,72.46,103.83,74.73,103,75.28Z"/><path class="cls-7" d="M112.26,73.48a.62.62,0,0,0,.5.26h.17l.09,0a.51.51,0,0,0,.43-.49A2.36,2.36,0,0,0,113,72.1a.68.68,0,0,0-.88-.17h0a.8.8,0,0,0-.25.22.39.39,0,0,0-.07.34,4.55,4.55,0,0,0,.19.5A5.39,5.39,0,0,0,112.26,73.48Z"/><path class="cls-7" d="M113.55,74.5a.55.55,0,0,0-.42,0c-.44.22-.68,1.75-1.31,3.14-1,2.13-1.2,2.64-1.75,3.81,0,.08-.15.3-.25.5-2,4.2-2.48,5.11-3,5.23-1.07.25-2.78-.55-5.23-2.44l-2.13-1.63c-4.17-3.18-4.71-3.64-4.84-5a4.15,4.15,0,0,1,2.68-4,1.74,1.74,0,0,1,.39-.05,4.91,4.91,0,0,1,2.45,1.12c1.05.71,2.24,1.52,3.38.74a4.19,4.19,0,0,0,1.23-2.36,6.93,6.93,0,0,1,.75-1.92c.83-1.2,2.53-1.48,4.34-.73a3.34,3.34,0,0,1,.67.38l.09,0a1.43,1.43,0,0,0,1,.07,1.18,1.18,0,0,0,.28-.12.56.56,0,0,0,.14-.87,4.56,4.56,0,0,0-.59-.54l0,0a5.57,5.57,0,0,0-.89-.48c-2.57-1.08-5.07-.56-6.36,1.32a8.31,8.31,0,0,0-1,2.39,5,5,0,0,1-.58,1.46c-.2.13-1-.4-1.5-.75-1.13-.77-2.53-1.73-4.19-1.3A5.78,5.78,0,0,0,93,78.29c.2,2.15,1.22,2.92,5.49,6.18l2.12,1.62c2.53,2,4.33,2.84,5.83,2.84a4.07,4.07,0,0,0,.79-.09,2.66,2.66,0,0,0,.65-.25c1-.59,3.5-5.89,3.5-5.89.94-2.07,2.52-4.92,2.59-6.8C113.93,75.57,114,74.67,113.55,74.5Z"/><path class="cls-14" d="M109.64,80.09c-.89.2-1.29-.84-2.47-.71a2.36,2.36,0,0,0-2,1.59,2.64,2.64,0,0,0,.39,2,5.84,5.84,0,0,0,2.63,2.52c1,.55,2.24,1.18,3.5.76,1.44-.47,2-2,2.51-3.25a4.64,4.64,0,0,0-.07-3.71c-.53-1.09-1.45-1.82-2.42-1.53C110.62,78.07,110.76,79.83,109.64,80.09Z"/><path class="cls-15" d="M67.14,118.43a12.85,12.85,0,0,1-.82-2.39,4.47,4.47,0,0,0,1.74-5.68,4.37,4.37,0,0,0-4.17-2.19,3.3,3.3,0,0,0,.87-1.28,4,4,0,0,0-1.17-4,4.67,4.67,0,0,0-4.23-.91c-.18-.83-.59-1.46-1.06-1.52a2,2,0,0,0-.56.08c-.36.08-.7.15-.75.34s.25.31.41.69a1.48,1.48,0,0,1,.08.81,3.2,3.2,0,0,0-.43.17,3.32,3.32,0,0,1-.48-.59c-.32-.49-.3-.74-.53-.83a.9.9,0,0,0-1,.56c0,.1,0,.22.18,1,.1.31.18.57.25.76a7.36,7.36,0,0,0-.7.55,2.8,2.8,0,0,0-1.33-.57c-.2,0-2.07-.43-2.83.65-.22.3-.47.89-.23,1.25.38.54,1.51-.19,2.63.45a3.18,3.18,0,0,1,1.13,1.35,9.5,9.5,0,0,1,.87,2.39c0,.19.1.35.12.46-.27.17-.54.34-.8.53a.92.92,0,0,0,.49,1.6h.69a.13.13,0,0,0,0,.06,4.76,4.76,0,0,1-.76,2c-.08.14-.16.28-.25.41-.24.38-.49.75-.74,1.07-.13.17-.25.32-.37.45a.27.27,0,0,1-.07.08l0,0a2.26,2.26,0,0,1-1.33.59,7.18,7.18,0,0,1-1.82.19.91.91,0,0,0-.4,0,1,1,0,0,0-.58.76c-.19,1,.89,1.36,1.67,1.33a7,7,0,0,0,2.3-.49,6.68,6.68,0,0,0,2.09-1.36,18,18,0,0,0,3.51.49,15.26,15.26,0,0,0,2.24,0,8.31,8.31,0,0,1,.71,2.4c.1,1.32.06,2,.43,2.21s1.12-.25,1.46-.82a1.48,1.48,0,0,0,.19-.51,9.45,9.45,0,0,0-.59-3.58,10.27,10.27,0,0,0,1.55-.47c.76,2.56,1.18,3.13,1.42,3.1s.17-.17.56-.39.47-.17.57-.31S67.23,118.62,67.14,118.43Zm-1.25-5.14c-.38-1-.79-1.89-1.22-2.84a3.55,3.55,0,0,1,.53.32,2.09,2.09,0,0,1,.91,1.46A1.75,1.75,0,0,1,65.89,113.29Zm-9-5.93c-.14-.5-.23-.79-.28-1l0-.11h0l.35.75q.31.69.66,1.41l-.14,0-.24.07C57.1,108.08,57,107.68,56.9,107.36Zm3.12.3c-.39-.93-.81-1.87-1.23-2.81.53.9,1.05,1.82,1.55,2.76Zm-2.82,7.48h0a7.06,7.06,0,0,0,.63-3.14q.54-.12,1-.27a21.65,21.65,0,0,1,1,3.44c-.53,0-1,.07-1.35.07a5.9,5.9,0,0,1-.8,0Zm4.34-10.78,0,0a1.93,1.93,0,0,1,.91,1.69C62.18,105.5,61.86,104.93,61.54,104.36Zm.23,6.09c.69,1.44,1.27,2.77,1.84,4.21l-.73.18c-.46-1.26-.92-2.46-1.47-3.83,0-.1-.08-.19-.11-.29Z"/><path class="cls-7" d="M67.66,118.2v0h0a12,12,0,0,1-.69-1.9,5,5,0,0,0,1.59-6.18A4.74,4.74,0,0,0,65,107.65a3,3,0,0,0,.27-.57A4.55,4.55,0,0,0,64,102.43a4.92,4.92,0,0,0-4.22-1.16,1.9,1.9,0,0,0-1.39-1.42,2.14,2.14,0,0,0-.75.08h0c-.44.11-1,.23-1.14.73a.78.78,0,0,0-.18-.11,1.2,1.2,0,0,0-1,0,1.49,1.49,0,0,0-.82.85c-.09.28-.06.54.18,1.33,0,.14.08.26.12.38l-.07,0a3.51,3.51,0,0,0-1.2-.43h0c-1.55-.28-2.74,0-3.34.88a1.76,1.76,0,0,0-.24,1.91,1.45,1.45,0,0,0,1.47.44,2.27,2.27,0,0,1,1.35.19,2.7,2.7,0,0,1,.92,1.13,9.37,9.37,0,0,1,.81,2.26v0L54,110a1.43,1.43,0,0,0-.48,1.61,1.39,1.39,0,0,0,1.29,1h0a3.89,3.89,0,0,0-.17.41c-.08.2-.14.39-.19.56a.6.6,0,0,0,.14.4.55.55,0,0,0,.39.18.53.53,0,0,0,.42-.24,9.3,9.3,0,0,0,.66-1.84.63.63,0,0,0,0-.11.58.58,0,0,0-.42-.49.47.47,0,0,0-.17,0h-.66c-.14,0-.21-.16-.22-.21a.31.31,0,0,1,.06-.35c.25-.18.5-.35.75-.5a.58.58,0,0,0,.27-.62c0-.11-.07-.28-.13-.48a9.86,9.86,0,0,0-.93-2.53,3.68,3.68,0,0,0-1.34-1.56,3.29,3.29,0,0,0-2-.32,3.37,3.37,0,0,1-.44,0,1.15,1.15,0,0,1,.23-.56c.32-.46,1.13-.62,2.22-.43h.05a2.21,2.21,0,0,1,1.06.45.57.57,0,0,0,.74,0,7.77,7.77,0,0,1,.65-.52.58.58,0,0,0,.21-.65c-.06-.18-.15-.43-.24-.73a4.48,4.48,0,0,1-.17-.66.41.41,0,0,1,.19-.15h0a3.42,3.42,0,0,0,.31.57,4.09,4.09,0,0,0,.55.68.57.57,0,0,0,.62.12l.41-.15a.59.59,0,0,0,.37-.44,2,2,0,0,0-.11-1.14,1.26,1.26,0,0,0-.13-.23h.08a1.41,1.41,0,0,1,.35-.06c.1,0,.41.34.57,1.07a.58.58,0,0,0,.66.45l.07,0a4,4,0,0,1,3.66.77,3.44,3.44,0,0,1,1,3.45,2.58,2.58,0,0,1-.71,1,.59.59,0,0,0-.15.65.57.57,0,0,0,.57.34,3.81,3.81,0,0,1,3.62,1.9A3.88,3.88,0,0,1,66,115.56a.57.57,0,0,0-.24.62,14.09,14.09,0,0,0,.85,2.49v0a1.45,1.45,0,0,1,.12.28,1.61,1.61,0,0,0-.33.16l-.24.15a15.16,15.16,0,0,1-.91-2.53.61.61,0,0,0-.3-.35.57.57,0,0,0-.46,0,8.73,8.73,0,0,1-1.47.44.61.61,0,0,0-.37.28.57.57,0,0,0-.05.46,8.8,8.8,0,0,1,.57,3.35.76.76,0,0,1-.12.27,1.41,1.41,0,0,1-.67.57,8.53,8.53,0,0,1-.11-1c0-.2,0-.43,0-.68a7.18,7.18,0,0,0-.63-2.26l-.12-.31a.55.55,0,0,0-.58-.36,14.38,14.38,0,0,1-2.07,0h-.1a17,17,0,0,1-3.39-.48.57.57,0,0,0-.53.14A5.9,5.9,0,0,1,52.92,118a6.54,6.54,0,0,1-2.11.45,1.34,1.34,0,0,1-1-.31.33.33,0,0,1-.07-.34.44.44,0,0,1,.23-.34.42.42,0,0,1,.16,0,15,15,0,0,0,2-.2,3.54,3.54,0,0,0,1.63-.82.77.77,0,0,0-.26-.42.83.83,0,0,0-.6-.17,6.27,6.27,0,0,1-1,.29,3.89,3.89,0,0,1-1.67.18,1.47,1.47,0,0,0-.65.09,1.54,1.54,0,0,0-.93,1.19,1.47,1.47,0,0,0,.32,1.3,2,2,0,0,0,1,.59,3.1,3.1,0,0,0,.93.11,7.4,7.4,0,0,0,2.49-.53,7.16,7.16,0,0,0,2-1.27,18.47,18.47,0,0,0,3.31.44h.1a17.81,17.81,0,0,0,1.79,0,6.16,6.16,0,0,1,.52,1.86c0,.24,0,.46,0,.67.07,1,.11,1.68.69,2,.75.4,1.8-.34,2.22-1a1.9,1.9,0,0,0,.27-.77,9.12,9.12,0,0,0-.44-3.2l.46-.14c.8,2.57,1.25,3,1.86,2.93a.83.83,0,0,0,.46-.24,1.69,1.69,0,0,1,.31-.22l.27-.13a1,1,0,0,0,.48-.35A1.43,1.43,0,0,0,67.66,118.2Z"/><path class="cls-7" d="M54.56,114.53a.61.61,0,0,0-.35-.12.66.66,0,0,0-.49.24.7.7,0,0,0-.13.18.86.86,0,0,0-.08.28.37.37,0,0,0,0,.18.63.63,0,0,0,.74.35.41.41,0,0,0,.15-.07,1.33,1.33,0,0,0,.19-.21,1.5,1.5,0,0,0,.18-.32.4.4,0,0,0-.08-.4A.58.58,0,0,0,54.56,114.53Z"/><path class="cls-15" d="M61.8,104.05a3.13,3.13,0,0,0-1.18-.44c.66,1.11,1.29,2.24,1.9,3.39.06-.09.13-.18.19-.28A2.12,2.12,0,0,0,61.8,104.05Zm-.26.31,0,0a1.93,1.93,0,0,1,.91,1.69C62.18,105.5,61.86,104.93,61.54,104.36Z"/><path class="cls-7" d="M62,103.7a3.48,3.48,0,0,0-1.34-.5.42.42,0,0,0-.4.17.43.43,0,0,0,0,.45c.65,1.08,1.29,2.22,1.89,3.37a.44.44,0,0,0,.25.2l.08,0a.41.41,0,0,0,.36-.16,2.35,2.35,0,0,0,.22-.33A2.51,2.51,0,0,0,62,103.7Zm-.48.66,0,0a1.93,1.93,0,0,1,.91,1.69C62.18,105.5,61.86,104.93,61.54,104.36Z"/><path class="cls-15" d="M58.6,103.74l-.55.17-.12,0c.64,1.38,1.25,2.76,1.84,4.16.41-.08.81-.13,1.22-.17C60.24,106.52,59.44,105.11,58.6,103.74Zm.19,1.11c.53.9,1.05,1.82,1.55,2.76l-.32,0C59.63,106.73,59.21,105.79,58.79,104.85Z"/><path class="cls-7" d="M61.35,107.76c-.76-1.46-1.57-2.88-2.4-4.24a.42.42,0,0,0-.46-.18,4.36,4.36,0,0,0-.58.19h0l-.12,0a.43.43,0,0,0-.23.23.4.4,0,0,0,0,.32c.64,1.38,1.25,2.77,1.83,4.15a.41.41,0,0,0,.27.23.4.4,0,0,0,.19,0c.37-.07.76-.12,1.18-.16a.45.45,0,0,0,.32-.22A.42.42,0,0,0,61.35,107.76Zm-1.33-.1c-.39-.93-.81-1.87-1.23-2.81.53.9,1.05,1.82,1.55,2.76Z"/><path class="cls-7" d="M58.6,108.66l-.92-2c-.31-.66-.63-1.33-1-2a.4.4,0,0,0-.62-.14l-.28.23-.27.25a.4.4,0,0,0-.1.44c.11.3.22.65.34,1l0,.11.28,1c.12.43.28,1,.45,1.68a.44.44,0,0,0,.27.29h0a.39.39,0,0,0,.36-.07,1.35,1.35,0,0,1,.45-.22h0a1.31,1.31,0,0,1,.5,0,.39.39,0,0,0,.39-.15A.42.42,0,0,0,58.6,108.66Zm-1.14-.19-.24.07c-.12-.46-.23-.86-.32-1.18-.14-.5-.23-.79-.28-1l0-.11h0l.35.75q.31.69.66,1.41Z"/><path class="cls-15" d="M59.25,111.56c0-.11-.09-.22-.14-.34a11.3,11.3,0,0,1-1.71.44,6.78,6.78,0,0,1-.67,3.5l-.16.29.57.1.57.08a17.41,17.41,0,0,0,2.69-.09A22.34,22.34,0,0,0,59.25,111.56Zm-1.49,3.66-.56-.08h0a7.06,7.06,0,0,0,.63-3.14q.54-.12,1-.27a21.65,21.65,0,0,1,1,3.44c-.53,0-1,.07-1.35.07A5.9,5.9,0,0,1,57.76,115.22Z"/><path class="cls-7" d="M60.81,115.47a23.62,23.62,0,0,0-1.18-4.06,3.65,3.65,0,0,1-.14-.35.42.42,0,0,0-.51-.22,13.29,13.29,0,0,1-1.65.42.41.41,0,0,0-.34.43,6.41,6.41,0,0,1-.62,3.28l-.16.28a.42.42,0,0,0,0,.38.38.38,0,0,0,.26.22h0l.59.1.19,0,.4.05a18,18,0,0,0,2.77-.09.43.43,0,0,0,.29-.16A.41.41,0,0,0,60.81,115.47Zm-2.25-.23a5.9,5.9,0,0,1-.8,0l-.56-.08h0a7.06,7.06,0,0,0,.63-3.14q.54-.12,1-.27a21.65,21.65,0,0,1,1,3.44C59.38,115.21,58.93,115.24,58.56,115.24Z"/><path class="cls-15" d="M62,109.87c-.39.24-.78.46-1.18.66.09.21.18.42.26.63.57,1.43,1.06,2.7,1.58,4.15a7.92,7.92,0,0,0,1.54-.4C63.46,113.15,62.77,111.57,62,109.87ZM61.41,111c0-.1-.08-.19-.11-.29l.47-.27c.69,1.44,1.27,2.77,1.84,4.21l-.73.18C62.42,113.58,62,112.38,61.41,111Z"/><path class="cls-7" d="M64.53,114.76c-.68-1.75-1.36-3.32-2.21-5.07a.41.41,0,0,0-.26-.22.43.43,0,0,0-.33,0,12.76,12.76,0,0,1-1.14.64.41.41,0,0,0-.2.52l.26.63c.59,1.48,1.07,2.76,1.58,4.14a.38.38,0,0,0,.27.25.37.37,0,0,0,.18,0,8.39,8.39,0,0,0,1.62-.42.4.4,0,0,0,.23-.53Zm-1.65.08c-.46-1.26-.92-2.46-1.47-3.83,0-.1-.08-.19-.11-.29l.47-.27c.69,1.44,1.27,2.77,1.84,4.21Z"/><path class="cls-15" d="M65.44,110.44a4.07,4.07,0,0,0-1.54-.67c.67,1.42,1.29,2.87,1.87,4.33a.67.67,0,0,0,.14-.15A2.28,2.28,0,0,0,65.44,110.44Zm.45,2.85c-.38-1-.79-1.89-1.22-2.84a3.55,3.55,0,0,1,.53.32,2.09,2.09,0,0,1,.91,1.46A1.75,1.75,0,0,1,65.89,113.29Z"/><path class="cls-7" d="M66.93,112.15a2.89,2.89,0,0,0-1.25-2,4.3,4.3,0,0,0-1.7-.74.43.43,0,0,0-.41.15.44.44,0,0,0,0,.43c.68,1.42,1.31,2.87,1.87,4.3a.44.44,0,0,0,.27.25h0a.41.41,0,0,0,.37-.12c.06,0,.11-.11.16-.16A2.65,2.65,0,0,0,66.93,112.15Zm-1,1.14c-.38-1-.79-1.89-1.22-2.84a3.55,3.55,0,0,1,.53.32,2.09,2.09,0,0,1,.91,1.46A1.75,1.75,0,0,1,65.89,113.29Z"/></g></g></svg>