<svg xmlns="http://www.w3.org/2000/svg" viewBox="0 0 118.66 118.49"><defs><style>.cls-1{fill:#a2cbec;}.cls-2{fill:#358acb;}</style></defs><g id="레이어_2" data-name="레이어 2"><g id="레이어_1-2" data-name="레이어 1"><path d="M105.9,49c2.11-1.18,4.2-2.37,6.29-3.56,1.84-1,3.65-2.09,5.45-3.1a1.73,1.73,0,0,0,1-1.72c0-4.81,0-9.72,0-15.08a1.62,1.62,0,0,0-.93-1.64c-4.44-2.52-8.87-5-13.27-7.57a1.61,1.61,0,0,0-1.9,0c-3.81,2.2-7.9,4.55-13.27,7.57a1.66,1.66,0,0,0-1,1.72c.06,1,0,1.89,0,2.88v1.36a.94.94,0,0,1-.45.79,1,1,0,0,1-.48.14,1.08,1.08,0,0,1-.4-.11l-3-1.5c-2.85-1.44-5.65-2.85-8.44-4.21a2,2,0,0,1-1.1-2V20c0-3.44,0-6.89,0-10.33a1.83,1.83,0,0,0-1-1.84C69.33,5.48,65.06,3,60.4.34a1.82,1.82,0,0,0-1-.34,2.09,2.09,0,0,0-1.07.34c-4.32,2.51-8.7,5-13,7.45a1.9,1.9,0,0,0-1.07,1.92c0,3.17,0,6.3,0,9.46V23A1.89,1.89,0,0,1,43.12,25c-2.85,1.41-5.67,2.83-8.58,4.29L31.63,30.7a.83.83,0,0,1-.42.11,1.14,1.14,0,0,1-.48-.14.93.93,0,0,1-.43-.79V28.49c0-1,0-1.92,0-2.85a1.65,1.65,0,0,0-1-1.78c-4.15-2.34-8.42-4.8-13-7.48a2,2,0,0,0-1-.34,2.42,2.42,0,0,0-1.1.37c-4.09,2.4-8.36,4.83-13,7.45a1.79,1.79,0,0,0-1,1.81c0,5.08,0,10.08,0,14.82a1.81,1.81,0,0,0,1.1,1.9c2.12,1.18,4.24,2.4,6.36,3.61,1.72,1,3.44,2,5.19,3a2.48,2.48,0,0,1,1.44,2.42c-.05,4.75-.05,9.86,0,15.68a2.44,2.44,0,0,1-1.38,2.37c-1.78,1-3.56,2-5.34,3L1.19,76A1.89,1.89,0,0,0,0,78c0,4.6,0,9.4,0,14.71A1.82,1.82,0,0,0,1.07,94.6c4.95,2.74,9,5.05,12.74,7.28a2.59,2.59,0,0,0,1.36.46,2.68,2.68,0,0,0,1.29-.43c2.18-1.3,4.41-2.57,6.58-3.81,1.59-.9,3.14-1.78,4.69-2.68A2.63,2.63,0,0,1,29.14,95a2.72,2.72,0,0,1,1.47.48c2.12,1.39,4.32,2.74,6.47,4.07.9.57,1.83,1.16,2.74,1.72a11.68,11.68,0,0,0,1.16.62A7.16,7.16,0,0,1,43.8,104a5.14,5.14,0,0,1,.45,3.48c0,.5-.08,1-.08,1.41a.21.21,0,0,1,0,.19A1.4,1.4,0,0,0,45,110.5l13.47,7.71a1.67,1.67,0,0,0,.85.28,1.45,1.45,0,0,0,.71-.2c4.29-2.48,8.58-4.91,12.87-7.37l.82-.48a1.34,1.34,0,0,0,.74-1.36v-1.41c0-.76,0-1.47,0-2.17a2.32,2.32,0,0,1,1.27-2.32c3.92-2.43,8.13-5.05,12.39-7.76A2.53,2.53,0,0,1,89.52,95a2.85,2.85,0,0,1,1.38.42c1.61.93,3.22,1.86,4.83,2.77,2.23,1.27,4.46,2.54,6.66,3.84a2.18,2.18,0,0,0,1.11.36,2.27,2.27,0,0,0,1.13-.36c4.34-2.54,8.69-5,12.93-7.4a1.87,1.87,0,0,0,1.1-1.92c-.06-5.2,0-10,0-14.69a1.93,1.93,0,0,0-1.19-2c-2.11-1.19-4.23-2.4-6.32-3.62l-5.31-3a2.22,2.22,0,0,1-1.27-2.14c0-5.51,0-10.87,0-15.93A2.35,2.35,0,0,1,105.9,49ZM90.53,29.62a1.81,1.81,0,0,1,.4-1.35,1.19,1.19,0,0,1,.85-.34,1.82,1.82,0,0,1,1,.34c2.91,1.66,5.76,3.3,8.47,4.83a2.27,2.27,0,0,1,1.13,2.17c0,1.13,0,2.26,0,3.39v2.65c0,1.13,0,2.29,0,3.45A1.72,1.72,0,0,1,102,46a1.23,1.23,0,0,1-.85.37,2,2,0,0,1-.93-.31c-2.91-1.67-5.79-3.34-8.7-5a2.06,2.06,0,0,1-1-2ZM71.9,12.2a1.86,1.86,0,0,1,.39,1.35c0,3.17,0,6.36,0,9.52a2.2,2.2,0,0,1-1.1,2c-2.85,1.59-5.68,3.22-8.47,4.83a1.89,1.89,0,0,1-1,.34,1.21,1.21,0,0,1-.87-.34,1.88,1.88,0,0,1-.4-1.35c0-1.13,0-2.29,0-3.45l0-1.41,0-1.3c0-1.1,0-2.23,0-3.33a2.16,2.16,0,0,1,1.13-2c2.83-1.61,5.65-3.22,8.47-4.86a2.14,2.14,0,0,1,1-.34A1.19,1.19,0,0,1,71.9,12.2Zm-23.05-4L58.4,2.77a1.77,1.77,0,0,1,1-.31,1.57,1.57,0,0,1,.76.22c2.4,1.39,4.83,2.77,7.34,4.18l2.35,1.36a.91.91,0,0,1,.48.79.92.92,0,0,1-.48.82c-.85.48-1.67.93-2.49,1.41-1.95,1.07-3.75,2.09-5.53,3.22a4.12,4.12,0,0,1-4.89,0c-1.75-1.16-3.58-2.18-5.5-3.25-.85-.45-1.7-.93-2.55-1.41A1,1,0,0,1,48.4,9,.94.94,0,0,1,48.85,8.22ZM60.4,61.33a2.3,2.3,0,0,1,1.27-2.2c2.55-1.44,5.26-3,8.25-4.71a2.27,2.27,0,0,1,1.13-.4,1.23,1.23,0,0,1,.85.37,1.77,1.77,0,0,1,.39,1.41c0,1.07,0,2.15,0,3.22v2.74c0,1.13,0,2.26,0,3.39A2.27,2.27,0,0,1,71,67.35c-2.51,1.41-5.19,3-8.24,4.71a2,2,0,0,1-1.11.37,1.15,1.15,0,0,1-.84-.34,1.82,1.82,0,0,1-.43-1.38C60.43,67.89,60.43,64.84,60.4,61.33ZM69.81,52l-2,1.13c-2.63,1.49-5.11,2.93-7.62,4.37a2,2,0,0,1-.85.23,2.24,2.24,0,0,1-1-.28l-7.45-4.3L48.85,52a.94.94,0,0,1-.45-.79,1,1,0,0,1,.45-.82l9.55-5.45a1.67,1.67,0,0,1,.93-.29,1.57,1.57,0,0,1,.79.2c2.49,1.44,5,2.85,7.6,4.35l2.09,1.19a.92.92,0,0,1,.48.82A.91.91,0,0,1,69.81,52ZM58.26,70.74a1.79,1.79,0,0,1-.43,1.35,1.13,1.13,0,0,1-.84.37,2,2,0,0,1-1.05-.37c-2.65-1.52-5.42-3.13-8.47-4.83a2.1,2.1,0,0,1-1.1-2V55.6a1.58,1.58,0,0,1,.39-1.24,1.13,1.13,0,0,1,.82-.34,1.9,1.9,0,0,1,1,.28c2.88,1.67,5.79,3.33,8.7,5a2.07,2.07,0,0,1,1,1.95v1.24C58.23,65.23,58.23,68,58.26,70.74ZM46.37,13.44a1.58,1.58,0,0,1,.39-1.24,1.11,1.11,0,0,1,.82-.37,2,2,0,0,1,1,.31c2.88,1.67,5.79,3.33,8.7,5a2.08,2.08,0,0,1,1,1.95v1c0,2.85,0,5.71,0,8.56a1.83,1.83,0,0,1-.43,1.35,1.15,1.15,0,0,1-.84.34,2.23,2.23,0,0,1-1.05-.34c-2.82-1.64-5.65-3.24-8.47-4.83A2.11,2.11,0,0,1,46.37,23ZM27.7,28.29a1.9,1.9,0,0,1,.43,1.47c0,2.69,0,5.54,0,9.24a2.31,2.31,0,0,1-1.25,2.23c-2.79,1.58-5.56,3.16-8.24,4.71a2,2,0,0,1-1.13.4,1.24,1.24,0,0,1-.88-.37,2,2,0,0,1-.39-1.47c0-1.1,0-2.23,0-3.33V38.49c0-1.07,0-2.15,0-3.22A2.21,2.21,0,0,1,17.48,33c2.77-1.55,5.56-3.14,8.25-4.72a2.09,2.09,0,0,1,1.13-.39A1.22,1.22,0,0,1,27.7,28.29Zm-13.64,13c0,1.11,0,2.21,0,3.31A1.68,1.68,0,0,1,13.67,46a1.23,1.23,0,0,1-.85.37A2.56,2.56,0,0,1,11.69,46c-2.76-1.64-5.56-3.22-8.36-4.8a2.17,2.17,0,0,1-1.15-2c0-3.22,0-6.41,0-9.63a1.74,1.74,0,0,1,.42-1.27,1.16,1.16,0,0,1,.82-.37,2.24,2.24,0,0,1,1,.34q4.23,2.46,8.47,4.83a2.16,2.16,0,0,1,1.15,2.17ZM6.67,27l-2-1.13a.93.93,0,0,1-.45-.79,1,1,0,0,1,.45-.82s2.4-1.38,3-1.75l2-1.1c1.41-.79,2.82-1.61,4.24-2.43a2.56,2.56,0,0,1,1.29-.39,2,2,0,0,1,1.11.31c2.23,1.3,4.49,2.6,6.83,3.92l2.51,1.44a1,1,0,0,1,.48.8.91.91,0,0,1-.48.79l-2.12,1.21L16,31.37a1.62,1.62,0,0,1-.85.26,1.83,1.83,0,0,1-1-.31Zm7.39,69.81a1.77,1.77,0,0,1-.39,1.35,1.23,1.23,0,0,1-.85.37,2.08,2.08,0,0,1-1-.34L3.31,93.36a2.15,2.15,0,0,1-1.13-2c0-1.15,0-2.34,0-3.5V85.11c0-1.13,0-2.26,0-3.42a1.84,1.84,0,0,1,.39-1.24,1.24,1.24,0,0,1,.85-.34,2.13,2.13,0,0,1,1,.28c2.88,1.67,5.79,3.34,8.67,5a2.12,2.12,0,0,1,1,2Zm1.08-13.07a2.63,2.63,0,0,1-1.33-.43c-2.17-1.27-4.35-2.51-6.61-3.81L4.69,78.08a.92.92,0,0,1,0-1.58c.82-.48,1.61-.91,2.37-1.33A53.66,53.66,0,0,0,12,72.23a5.45,5.45,0,0,1,3.14-1.13,5.65,5.65,0,0,1,3.22,1.16c1.55,1,3.24,2,4.88,2.88.71.4,1.44.79,2.18,1.22a.93.93,0,0,1,.45.9,1.65,1.65,0,0,1-1.07,1.33l-.12,0c-1,.59-2,1.15-3,1.72-1.72,1-3.42,2-5.11,3A2.71,2.71,0,0,1,15.14,83.76Zm13,1.52V88c0,1.07,0,2.15,0,3.19a2.26,2.26,0,0,1-1.25,2.26c-2.73,1.53-5.5,3.11-8.24,4.72a2.3,2.3,0,0,1-1.13.36,1.19,1.19,0,0,1-.85-.34,1.94,1.94,0,0,1-.42-1.46c0-3,0-6.13,0-9.24a2.37,2.37,0,0,1,1.33-2.31c2.76-1.53,5.5-3.08,8.16-4.63a2,2,0,0,1,1.13-.4,1.09,1.09,0,0,1,.87.37,1.93,1.93,0,0,1,.4,1.47Q28.09,83.63,28.13,85.28Zm16,8.81c0,1.24,0,2.51,0,3.84v1.84a1,1,0,0,1-.48.82,1.62,1.62,0,0,1-.46.11,1,1,0,0,1-.48-.14c-1-.62-2-1.25-2.91-1.87-2.17-1.38-4.2-2.71-6.38-3.84a5.59,5.59,0,0,1-3.24-6c.14-2.35.11-4.72.08-7,0-1.32,0-2.65,0-4a1.75,1.75,0,0,0-1-1.83q-3.06-1.69-6.1-3.48c-1.89-1.07-3.76-2.14-5.65-3.19a2.23,2.23,0,0,1-1.27-2.14c0-5.68,0-10.93,0-16.07a2.18,2.18,0,0,1,1.3-2.12c1.38-.76,2.74-1.55,4.09-2.34,2.37-1.36,4.8-2.77,7.23-4.1a2.33,2.33,0,0,0,1.47-2.54c-.06-.9-.06-1.84,0-2.71,0-.71,0-1.38,0-2.06a2.17,2.17,0,0,1,1.36-2.2C36,30.92,40.1,28.89,44,26.91a2.56,2.56,0,0,1,1.18-.31,2.33,2.33,0,0,1,1.16.34C49.73,28.89,53.2,30.86,57,33a2.15,2.15,0,0,1,1.24,2.06c-.06,2-.06,4.07,0,6.13a2.07,2.07,0,0,1-1.24,2c-1.64.93-3.28,1.89-4.92,2.83Q48.71,48,45.27,49.93a1.9,1.9,0,0,0-1.1,1.92c0,4.77,0,9.63,0,14.82a1.79,1.79,0,0,0,1.07,1.81c2.06,1.16,4.12,2.34,6.21,3.53,1.84,1,3.67,2.12,5.54,3.16a2.22,2.22,0,0,1,1.27,2.17c-.06,2-.06,3.93,0,5.85a2.36,2.36,0,0,1-1.33,2.29c-1.64.9-3.28,1.86-4.91,2.79-2.21,1.27-4.46,2.57-6.72,3.82A1.86,1.86,0,0,0,44.17,94.09Zm14.09,18.78a1.82,1.82,0,0,1-.43,1.38,1.13,1.13,0,0,1-.84.37,2,2,0,0,1-1-.34c-2.82-1.64-5.65-3.25-8.47-4.86a2,2,0,0,1-1.13-1.89V97.79a1.64,1.64,0,0,1,.39-1.27,1.15,1.15,0,0,1,.85-.34,2.07,2.07,0,0,1,1,.34c2.82,1.61,5.62,3.25,8.47,4.83a2.26,2.26,0,0,1,1.16,2.14c0,1.1,0,2.21,0,3.31v2.74C58.23,110.64,58.23,111.77,58.26,112.87Zm1.07-13a2,2,0,0,1-.85-.23c-2.57-1.5-5.11-2.94-7.79-4.46l-1.81-1.07a1,1,0,0,1-.48-.77,1,1,0,0,1,.45-.81l.77-.43,1.61-1,2.42-1.38c1.47-.85,2.94-1.67,4.41-2.54a2.69,2.69,0,0,1,1.3-.4,2,2,0,0,1,1.1.34c2.23,1.3,4.49,2.57,6.83,3.93l2.52,1.41a.92.92,0,0,1,.48.82.91.91,0,0,1-.48.79l-2.23,1.27c-2.52,1.47-4.95,2.85-7.37,4.23A1.78,1.78,0,0,1,59.33,99.91Zm13,7.4a2.24,2.24,0,0,1-1.27,2.2c-2.71,1.55-5.51,3.13-8.24,4.71a2.25,2.25,0,0,1-1.11.37,1.21,1.21,0,0,1-.87-.34,2,2,0,0,1-.4-1.41c0-1.1,0-2.23,0-3.33l0-1.41,0-1.33c0-1.1,0-2.18,0-3.28a2.28,2.28,0,0,1,1.3-2.2c2.69-1.52,5.48-3.11,8.25-4.71a1.88,1.88,0,0,1,1.07-.4,1.24,1.24,0,0,1,.88.37,1.76,1.76,0,0,1,.39,1.38C72.26,101,72.26,104,72.29,107.31ZM89.43,76.05A1.87,1.87,0,0,0,88.33,78c0,3.47,0,7,0,10.47v3a2,2,0,0,1-.9,1.92c-2.91,1.78-5.79,3.58-8.79,5.45l-2.79,1.75a.75.75,0,0,1-.48.14.86.86,0,0,1-.45-.11.93.93,0,0,1-.48-.8V98c0-1.25-.06-2.46,0-3.65A2.37,2.37,0,0,0,73,91.83c-2.23-1.18-4.44-2.48-6.61-3.7-1.55-.9-3.13-1.81-4.72-2.71a2.21,2.21,0,0,1-1.27-2.17c.06-2.12.06-4,0-5.85a2.25,2.25,0,0,1,1.33-2.26l5.25-3c2.12-1.22,4.27-2.46,6.39-3.64a1.86,1.86,0,0,0,1.12-1.9c0-4.77,0-9.74,0-14.82a1.83,1.83,0,0,0-1-1.84c-1.84-1-3.67-2.09-5.51-3.13-2.06-1.16-4.09-2.32-6.15-3.47A2.39,2.39,0,0,1,60.4,41c.06-1.75.06-3.61,0-5.87A2.17,2.17,0,0,1,61.59,33c4.29-2.4,7.57-4.27,10.65-6.07a2.26,2.26,0,0,1,1.24-.37,2.54,2.54,0,0,1,1.21.34c3.36,1.69,7.8,3.92,12.31,6.13a2.23,2.23,0,0,1,1.36,2.28c0,.88,0,1.76,0,2.63s0,1.78,0,2.66a1.64,1.64,0,0,0,1,1.69L95,45.55,101,49a2.47,2.47,0,0,1,1.44,2.42c0,4.52,0,9.52,0,15.68a2.41,2.41,0,0,1-1.35,2.37Q98.27,71,95.48,72.6C93.47,73.76,91.47,74.92,89.43,76.05Zm13,20.92a1.82,1.82,0,0,1-.39,1.24,1.19,1.19,0,0,1-.85.34,1.82,1.82,0,0,1-.93-.28c-2.91-1.67-5.79-3.33-8.7-5a2.09,2.09,0,0,1-1-2V81.83a1.78,1.78,0,0,1,.4-1.35,1.23,1.23,0,0,1,.85-.37,2.18,2.18,0,0,1,1,.34c3,1.72,5.73,3.31,8.47,4.86a2.22,2.22,0,0,1,1.13,2.14c0,1.11,0,2.21,0,3.31v2.65C102.39,94.6,102.39,95.78,102.42,97Zm13.64-16.46a2,2,0,0,1,.43,1.47c0,1.1,0,2.2,0,3.3V88c0,1.08,0,2.15,0,3.22a2.36,2.36,0,0,1-1.25,2.26c-2.74,1.53-5.5,3.11-8.24,4.72a2.3,2.3,0,0,1-1.13.36,1.21,1.21,0,0,1-.88-.34,2.07,2.07,0,0,1-.42-1.46c0-3,0-6.13,0-9.24a2.45,2.45,0,0,1,1.35-2.31c2.77-1.53,5.51-3.11,8.14-4.63a2.11,2.11,0,0,1,1.13-.4A1.09,1.09,0,0,1,116.06,80.51Zm-11.21-9.26c2.18,1.27,4.35,2.51,6.61,3.81L114,76.5a.93.93,0,0,1,.48.79.89.89,0,0,1-.48.79c-.79.48-1.61.9-2.37,1.35a58.34,58.34,0,0,0-5,3,5.54,5.54,0,0,1-3,1.1,5.3,5.3,0,0,1-3-1.07,54.36,54.36,0,0,0-5-3c-.76-.42-1.52-.82-2.28-1.27a.9.9,0,0,1-.4-1.13,2.32,2.32,0,0,1,1.27-1.21l.23-.09c1-.62,2.09-1.21,3.13-1.8,1.56-.91,3.11-1.78,4.66-2.69a2.52,2.52,0,0,1,1.41-.45A2.46,2.46,0,0,1,104.85,71.25Zm-.39-39.91a2,2,0,0,1-1,.29,1.67,1.67,0,0,1-.88-.26l-7.37-4.2L93,25.87a.88.88,0,0,1-.45-.79,1,1,0,0,1,.45-.8c.82-.45,1.61-.9,2.4-1.32,1.78-1,3.47-1.89,5-3a5.27,5.27,0,0,1,3.07-1.1A5.35,5.35,0,0,1,106.6,20c1.55,1.08,3.22,2,5,3L114,24.28a1,1,0,0,1,.45.8.94.94,0,0,1-.45.81Zm.11,13.3c0-1.15,0-2.28,0-3.44V38.46c0-1.1,0-2.2,0-3.3A2.26,2.26,0,0,1,105.81,33c2.71-1.53,5.51-3.14,8.36-4.77a2.17,2.17,0,0,1,1-.34,1.16,1.16,0,0,1,.85.34,1.83,1.83,0,0,1,.43,1.35c0,3.16,0,6.33,0,9.49a2.09,2.09,0,0,1-1.1,2c-2.83,1.61-5.65,3.22-8.48,4.86a2.17,2.17,0,0,1-1,.34A1.15,1.15,0,0,1,105,46,1.83,1.83,0,0,1,104.57,44.64Z"/><path class="cls-1" d="M116.49,29.62c0,3.16,0,6.33,0,9.49a2.09,2.09,0,0,1-1.1,2c-2.83,1.61-5.65,3.22-8.48,4.86a2.17,2.17,0,0,1-1,.34A1.15,1.15,0,0,1,105,46a1.83,1.83,0,0,1-.42-1.36c0-1.15,0-2.28,0-3.44V38.46c0-1.1,0-2.2,0-3.3A2.26,2.26,0,0,1,105.81,33c2.71-1.53,5.51-3.14,8.36-4.77a2.17,2.17,0,0,1,1-.34,1.16,1.16,0,0,1,.85.34A1.83,1.83,0,0,1,116.49,29.62Z"/><path class="cls-2" d="M102.39,41.31c0,1.13,0,2.29,0,3.45A1.72,1.72,0,0,1,102,46a1.23,1.23,0,0,1-.85.37,2,2,0,0,1-.93-.31c-2.91-1.67-5.79-3.34-8.7-5a2.06,2.06,0,0,1-1-2V29.62a1.81,1.81,0,0,1,.4-1.35,1.19,1.19,0,0,1,.85-.34,1.82,1.82,0,0,1,1,.34c2.91,1.66,5.76,3.3,8.47,4.83a2.27,2.27,0,0,1,1.13,2.17c0,1.13,0,2.26,0,3.39Z"/><path class="cls-1" d="M72.29,13.55c0,3.17,0,6.36,0,9.52a2.2,2.2,0,0,1-1.1,2c-2.85,1.59-5.68,3.22-8.47,4.83a1.89,1.89,0,0,1-1,.34,1.21,1.21,0,0,1-.87-.34,1.88,1.88,0,0,1-.4-1.35c0-1.13,0-2.29,0-3.45l0-1.41,0-1.3c0-1.1,0-2.23,0-3.33a2.16,2.16,0,0,1,1.13-2c2.83-1.61,5.65-3.22,8.47-4.86a2.14,2.14,0,0,1,1-.34,1.19,1.19,0,0,1,.85.34A1.86,1.86,0,0,1,72.29,13.55Z"/><path class="cls-2" d="M58.26,28.58a1.83,1.83,0,0,1-.43,1.35,1.15,1.15,0,0,1-.84.34,2.23,2.23,0,0,1-1.05-.34c-2.82-1.64-5.65-3.24-8.47-4.83A2.11,2.11,0,0,1,46.37,23v-9.6a1.58,1.58,0,0,1,.39-1.24,1.11,1.11,0,0,1,.82-.37,2,2,0,0,1,1,.31c2.88,1.67,5.79,3.33,8.7,5a2.08,2.08,0,0,1,1,1.95v1C58.23,22.87,58.23,25.73,58.26,28.58Z"/><path class="cls-1" d="M72.29,55.8c0,1.07,0,2.15,0,3.22v2.74c0,1.13,0,2.26,0,3.39A2.27,2.27,0,0,1,71,67.35c-2.51,1.41-5.19,3-8.24,4.71a2,2,0,0,1-1.11.37,1.15,1.15,0,0,1-.84-.34,1.82,1.82,0,0,1-.43-1.38c0-2.82,0-5.87,0-9.38a2.3,2.3,0,0,1,1.27-2.2c2.55-1.44,5.26-3,8.25-4.71a2.27,2.27,0,0,1,1.13-.4,1.23,1.23,0,0,1,.85.37A1.77,1.77,0,0,1,72.29,55.8Z"/><path class="cls-2" d="M58.26,70.74a1.79,1.79,0,0,1-.43,1.35,1.13,1.13,0,0,1-.84.37,2,2,0,0,1-1.05-.37c-2.65-1.52-5.42-3.13-8.47-4.83a2.1,2.1,0,0,1-1.1-2V55.6a1.58,1.58,0,0,1,.39-1.24,1.13,1.13,0,0,1,.82-.34,1.9,1.9,0,0,1,1,.28c2.88,1.67,5.79,3.33,8.7,5a2.07,2.07,0,0,1,1,1.95v1.24C58.23,65.23,58.23,68,58.26,70.74Z"/><path class="cls-1" d="M116.46,88c0,1.08,0,2.15,0,3.22a2.36,2.36,0,0,1-1.25,2.26c-2.74,1.53-5.5,3.11-8.24,4.72a2.3,2.3,0,0,1-1.13.36,1.21,1.21,0,0,1-.88-.34,2.07,2.07,0,0,1-.42-1.46c0-3,0-6.13,0-9.24a2.45,2.45,0,0,1,1.35-2.31c2.77-1.53,5.51-3.11,8.14-4.63a2.11,2.11,0,0,1,1.13-.4,1.09,1.09,0,0,1,.87.37,2,2,0,0,1,.43,1.47c0,1.1,0,2.2,0,3.3Z"/><path class="cls-2" d="M102.39,93.41c0,1.19,0,2.37,0,3.56a1.82,1.82,0,0,1-.39,1.24,1.19,1.19,0,0,1-.85.34,1.82,1.82,0,0,1-.93-.28c-2.91-1.67-5.79-3.33-8.7-5a2.09,2.09,0,0,1-1-2V81.83a1.78,1.78,0,0,1,.4-1.35,1.23,1.23,0,0,1,.85-.37,2.18,2.18,0,0,1,1,.34c3,1.72,5.73,3.31,8.47,4.86a2.22,2.22,0,0,1,1.13,2.14c0,1.11,0,2.21,0,3.31Z"/><path class="cls-1" d="M72.29,107.31a2.24,2.24,0,0,1-1.27,2.2c-2.71,1.55-5.51,3.13-8.24,4.71a2.25,2.25,0,0,1-1.11.37,1.21,1.21,0,0,1-.87-.34,2,2,0,0,1-.4-1.41c0-1.1,0-2.23,0-3.33l0-1.41,0-1.33c0-1.1,0-2.18,0-3.28a2.28,2.28,0,0,1,1.3-2.2c2.69-1.52,5.48-3.11,8.25-4.71a1.88,1.88,0,0,1,1.07-.4,1.24,1.24,0,0,1,.88.37,1.76,1.76,0,0,1,.39,1.38C72.26,101,72.26,104,72.29,107.31Z"/><path class="cls-2" d="M58.23,109.54c0,1.1,0,2.23,0,3.33a1.82,1.82,0,0,1-.43,1.38,1.13,1.13,0,0,1-.84.37,2,2,0,0,1-1-.34c-2.82-1.64-5.65-3.25-8.47-4.86a2,2,0,0,1-1.13-1.89V97.79a1.64,1.64,0,0,1,.39-1.27,1.15,1.15,0,0,1,.85-.34,2.07,2.07,0,0,1,1,.34c2.82,1.61,5.62,3.25,8.47,4.83a2.26,2.26,0,0,1,1.16,2.14c0,1.1,0,2.21,0,3.31Z"/><path class="cls-1" d="M28.13,82q0,1.65,0,3.3V88c0,1.07,0,2.15,0,3.19a2.26,2.26,0,0,1-1.25,2.26c-2.73,1.53-5.5,3.11-8.24,4.72a2.3,2.3,0,0,1-1.13.36,1.19,1.19,0,0,1-.85-.34,1.94,1.94,0,0,1-.42-1.46c0-3,0-6.13,0-9.24a2.37,2.37,0,0,1,1.33-2.31c2.76-1.53,5.5-3.08,8.16-4.63a2,2,0,0,1,1.13-.4,1.09,1.09,0,0,1,.87.37A1.93,1.93,0,0,1,28.13,82Z"/><path class="cls-2" d="M14.06,87.34v9.49a1.77,1.77,0,0,1-.39,1.35,1.23,1.23,0,0,1-.85.37,2.08,2.08,0,0,1-1-.34L3.31,93.36a2.15,2.15,0,0,1-1.13-2c0-1.15,0-2.34,0-3.5V85.11c0-1.13,0-2.26,0-3.42a1.84,1.84,0,0,1,.39-1.24,1.24,1.24,0,0,1,.85-.34,2.13,2.13,0,0,1,1,.28c2.88,1.67,5.79,3.34,8.67,5A2.12,2.12,0,0,1,14.06,87.34Z"/><path class="cls-1" d="M28.13,39a2.31,2.31,0,0,1-1.25,2.23c-2.79,1.58-5.56,3.16-8.24,4.71a2,2,0,0,1-1.13.4,1.24,1.24,0,0,1-.88-.37,2,2,0,0,1-.39-1.47c0-1.1,0-2.23,0-3.33V38.49c0-1.07,0-2.15,0-3.22A2.21,2.21,0,0,1,17.48,33c2.77-1.55,5.56-3.14,8.25-4.72a2.09,2.09,0,0,1,1.13-.39,1.22,1.22,0,0,1,.84.36,1.9,1.9,0,0,1,.43,1.47C28.1,32.45,28.1,35.3,28.13,39Z"/><path class="cls-2" d="M14.06,35.24v6c0,1.11,0,2.21,0,3.31A1.68,1.68,0,0,1,13.67,46a1.23,1.23,0,0,1-.85.37A2.56,2.56,0,0,1,11.69,46c-2.76-1.64-5.56-3.22-8.36-4.8a2.17,2.17,0,0,1-1.15-2c0-3.22,0-6.41,0-9.63a1.74,1.74,0,0,1,.42-1.27,1.16,1.16,0,0,1,.82-.37,2.24,2.24,0,0,1,1,.34q4.23,2.46,8.47,4.83A2.16,2.16,0,0,1,14.06,35.24Z"/></g></g></svg>