<svg xmlns="http://www.w3.org/2000/svg" viewBox="0 0 109.91 105.02"><defs><style>.cls-1{fill:#bddcf4;stroke-linecap:round;stroke-linejoin:round;}.cls-1,.cls-2,.cls-4{stroke:#231815;stroke-width:3px;}.cls-2,.cls-5{fill:#f1ec8d;}.cls-2,.cls-4{stroke-miterlimit:10;}.cls-3,.cls-4{fill:#fff;}.cls-6{fill:#231815;}</style></defs><g id="레이어_2" data-name="레이어 2"><g id="레이어_1-2" data-name="레이어 1"><path class="cls-1" d="M18.64,14.62a47.73,47.73,0,0,1-9.2,9.47c-.37.27-.74.58-1.11.91-.8.72-5.75,5.59-5.5,11.27.27,6.1,5.82,7.86,5.5,13.1C8.16,52.16,6,51.84,3.62,57,2.21,60,1,62.69,1.75,65.88A10.39,10.39,0,0,0,7,72.17c4.17,2,7.33-2.45,10.22-.79s.8,6.38,4.46,10.48A12.18,12.18,0,0,0,29,85.53c6.9.84,9.81-5.38,14.68-4.19,4,1,3.37,5.57,8.38,10.22,5.31,4.92,14.79,7.9,20.7,4.71C79.59,92.6,75.6,84,83.08,78c7-5.6,13.94-.75,20.6-7.44.81-.81,5-5,4.72-11.26-.24-4.83-3.65-5.06-5-10-2-7.6,4.46-11.45,3.1-19.56a16.68,16.68,0,0,0-6.28-10.48c-8.49-6.14-18.09,2.45-26.08-3.41C69.36,12.3,71.39,8.12,65.4,4.3,65,4,58.25-.12,51.51,2.2,47.35,3.64,47.82,5.93,43.65,8,36.94,11.24,32.31,7,26,9A14.79,14.79,0,0,0,18.64,14.62Z"/><path class="cls-2" d="M52.63,15.71C50.2,14.17,37.3,23.5,35.22,37.17c-1.75,11.57,5.13,20.43,7.25,22.92,6.36,7.43,16.68,12.21,27,10.73C80.28,69.25,89.4,61,88.3,58.06s-11.51,2.56-22-2.91C57,50.35,51.07,38.83,50.89,28.76,50.74,21,54.1,16.64,52.63,15.71Z"/><path d="M20.35,105a8,8,0,0,1,.18-15.94,8,8,0,0,1,7.92,8,8,8,0,0,1-8.09,8Zm.16-13.51a5.54,5.54,0,0,0,0,11.08h0a5.45,5.45,0,0,0,3.85-1.65,5.5,5.5,0,0,0-3.82-9.43Z"/><path class="cls-3" d="M36.35,69.66c-3.65,0-7.29,0-10.93,0a6.22,6.22,0,0,1-6.24-4.43,6.14,6.14,0,0,1,3-7.11A2.17,2.17,0,0,0,23.33,56a6.75,6.75,0,0,1,4.33-6.63,6.85,6.85,0,0,1,7.73,1.39c1.36,1.23,1.63,1.28,3.17.38A5.56,5.56,0,0,1,47,55.3c.21,1.59.45,1.86,2,2.22A6.13,6.13,0,0,1,47.8,69.64C44,69.72,40.17,69.66,36.35,69.66Z"/><path class="cls-4" d="M43.25,69.18H25.42a5.75,5.75,0,0,1-5.76-4.06,5.64,5.64,0,0,1,2.76-6.55A2.67,2.67,0,0,0,23.83,56a6.21,6.21,0,0,1,4-6.17,6.94,6.94,0,0,1,2.71-.59,6.65,6.65,0,0,1,4.48,1.89c.75.68,1.3,1.12,2,1.12a3.6,3.6,0,0,0,1.77-.67,5.26,5.26,0,0,1,2.64-.73,5.06,5.06,0,0,1,5,4.51c.24,1.79.64,2.23,2.37,2.63a5.65,5.65,0,0,1,4.41,6.09,5.58,5.58,0,0,1-5.45,5C46.28,69.17,44.76,69.18,43.25,69.18Z"/><path class="cls-5" d="M77.18,40.8A1.5,1.5,0,0,1,75.85,40c-.22-.41-.41-.82-.61-1.23-.91-1.92-1.5-3-3.1-3.41A1.5,1.5,0,0,1,72,32.46c1.94-.62,2.64-2.1,3.71-4.67a1.51,1.51,0,0,1,1.39-.92h0a1.5,1.5,0,0,1,1.38.95c1,2.39,1.73,4,3.71,4.62a1.5,1.5,0,0,1,1,1.44,1.52,1.52,0,0,1-1.08,1.43c-2,.58-2.68,2.1-3.63,4.54a1.5,1.5,0,0,1-1.31.95Z"/><path class="cls-6" d="M77.13,28.37c1,2.5,2,4.67,4.65,5.5-2.73.8-3.65,3-4.6,5.43C76,37,75.37,34.58,72.49,33.89c2.67-.85,3.6-3,4.64-5.52m0-3a3,3,0,0,0-2.77,1.85c-1,2.45-1.53,3.41-2.78,3.81a3,3,0,0,0,.21,5.78c.89.21,1.21.71,2.1,2.59.2.43.4.86.63,1.29a3,3,0,0,0,2.66,1.61h.16A3,3,0,0,0,80,40.39c1-2.47,1.46-3.29,2.65-3.64a3,3,0,0,0,0-5.74c-1.22-.39-1.79-1.32-2.75-3.75a3,3,0,0,0-2.77-1.89Z"/><path class="cls-3" d="M20.51,92a5,5,0,1,1-5.05,5A5.1,5.1,0,0,1,20.51,92Z"/></g></g></svg>