<?xml version="1.0" standalone="no"?>
<!DOCTYPE svg PUBLIC "-//W3C//DTD SVG 20010904//EN"
 "http://www.w3.org/TR/2001/REC-SVG-20010904/DTD/svg10.dtd">
<svg version="1.0" xmlns="http://www.w3.org/2000/svg"
 width="144.000000pt" height="144.000000pt" viewBox="0 0 144.000000 144.000000"
 preserveAspectRatio="xMidYMid meet">
<metadata>
Created by potrace 1.14, written by Peter Selinger 2001-2017
</metadata>
<g transform="translate(0.000000,144.000000) scale(0.100000,-0.100000)"
fill="#000000" stroke="none">
<path d="M293 1240 c-121 -25 -216 -123 -230 -239 -7 -62 19 -151 56 -193 l28
-32 -36 -66 c-25 -47 -44 -71 -63 -78 -65 -24 -60 -159 6 -190 16 -7 26 -22
30 -46 9 -49 40 -68 108 -65 37 1 65 -4 93 -18 113 -58 317 -112 430 -116 48
-2 187 15 263 33 77 17 87 17 120 3 21 -9 60 -16 89 -16 62 -2 97 25 107 78 5
23 13 35 29 39 35 8 77 59 84 99 10 66 -35 129 -81 111 -17 -6 -29 33 -16 55
4 9 24 33 43 53 58 62 81 121 81 213 0 99 -28 167 -98 236 -50 49 -150 106
-201 115 -16 2 -37 7 -44 10 -30 10 -168 4 -213 -10 -36 -10 -58 -11 -90 -4
-24 5 -84 8 -135 5 -71 -4 -105 -1 -150 12 -63 20 -144 24 -210 11z"/>
</g>
</svg>
